<svg width="22" height="22" viewBox="0 0 22 22" fill="none" xmlns="http://www.w3.org/2000/svg">
<path d="M16.883 18.297C15.1239 19.4127 13.0831 20.0035 11 20C5.608 20 1.122 16.12 0.181999 11C0.611687 8.67133 1.78255 6.54392 3.52 4.935L0.393999 1.808L1.808 0.394L21.607 20.192L20.193 21.607L16.883 18.297ZM4.936 6.35C3.57664 7.58545 2.62959 9.20866 2.223 11C2.53529 12.3665 3.16226 13.6411 4.054 14.7226C4.94574 15.804 6.07763 16.6624 7.35955 17.2293C8.64148 17.7962 10.038 18.0561 11.4381 17.9881C12.8381 17.9202 14.203 17.5264 15.424 16.838L13.396 14.81C12.5327 15.3538 11.5102 15.5881 10.4962 15.4744C9.48227 15.3608 8.53704 14.9059 7.81557 14.1844C7.0941 13.463 6.63923 12.5177 6.52556 11.5038C6.41189 10.4898 6.64618 9.46731 7.19 8.604L4.936 6.35ZM11.914 13.328L8.672 10.087C8.49406 10.5399 8.45219 11.035 8.5515 11.5113C8.65082 11.9877 8.88702 12.4248 9.23112 12.7689C9.57522 13.113 10.0123 13.3492 10.4887 13.4485C10.965 13.5478 11.4611 13.5059 11.914 13.328ZM19.807 15.593L18.376 14.162C19.0448 13.2094 19.5211 12.1353 19.778 11C19.5062 9.80962 18.9952 8.68693 18.2761 7.7002C17.5569 6.71346 16.6445 5.88329 15.5945 5.26016C14.5445 4.63702 13.3787 4.23394 12.168 4.07541C10.9573 3.91688 9.72707 4.00622 8.552 4.338L6.974 2.76C8.221 2.27 9.58 2 11 2C16.392 2 20.878 5.88 21.819 11C21.5127 12.666 20.824 14.2383 19.807 15.593ZM10.723 6.509C11.3595 6.46966 11.9971 6.56607 12.5935 6.79182C13.19 7.01757 13.7316 7.36751 14.1825 7.81845C14.6335 8.26939 14.9834 8.81103 15.2092 9.40746C15.4349 10.0039 15.5313 10.6415 15.492 11.278L10.722 6.508L10.723 6.509Z" fill="white"/>
</svg>
