<svg width="22" height="22" viewBox="0 0 22 22" fill="none" xmlns="http://www.w3.org/2000/svg">
<path d="M11.9222 17.5444C12.0452 17.667 12.1428 17.8127 12.2095 17.9731C12.2761 18.1335 12.3104 18.3054 12.3104 18.4791C12.3104 18.6528 12.2761 18.8247 12.2095 18.9851C12.1428 19.1455 12.0452 19.2912 11.9222 19.4138L11.2689 20.067C10.0309 21.3047 8.35189 22 6.60115 22C4.85042 22 3.17139 21.3047 1.93343 20.067C0.695477 18.8292 0 17.1506 0 15.4002C0 13.6498 0.695477 11.9711 1.93343 10.7334L4.58625 8.0822C5.7757 6.89004 7.37607 6.1977 9.05954 6.147C10.743 6.0963 12.3822 6.69107 13.6412 7.80949C13.7712 7.92502 13.8772 8.06501 13.9531 8.22147C14.0289 8.37794 14.0732 8.54781 14.0835 8.7214C14.0937 8.89498 14.0696 9.06888 14.0126 9.23316C13.9556 9.39744 13.8668 9.54888 13.7512 9.67885C13.6357 9.80881 13.4956 9.91475 13.3391 9.99061C13.1827 10.0665 13.0127 10.1108 12.8391 10.121C12.6655 10.1312 12.4916 10.1071 12.3273 10.0501C12.1629 9.99313 12.0115 9.90433 11.8815 9.78881C11.1265 9.1184 10.1438 8.76174 9.13443 8.79179C8.12508 8.82184 7.16536 9.23632 6.45157 9.95045L3.80096 12.5983C3.0583 13.3408 2.64108 14.3479 2.64108 15.398C2.64108 16.448 3.0583 17.4551 3.80096 18.1976C4.54362 18.9401 5.55088 19.3572 6.60115 19.3572C7.65143 19.3572 8.65869 18.9401 9.40134 18.1976L10.0546 17.5444C10.1772 17.4217 10.3228 17.3244 10.483 17.258C10.6432 17.1916 10.815 17.1574 10.9884 17.1574C11.1619 17.1574 11.3336 17.1916 11.4938 17.258C11.654 17.3244 11.7996 17.4217 11.9222 17.5444ZM20.0698 1.92983C18.8308 0.694024 17.1522 0 15.4021 0C13.652 0 11.9733 0.694024 10.7344 1.92983L10.081 2.583C9.8331 2.83089 9.69381 3.16711 9.69381 3.51768C9.69381 3.86825 9.8331 4.20446 10.081 4.45236C10.329 4.70025 10.6653 4.83951 11.0159 4.83951C11.3666 4.83951 11.7028 4.70025 11.9508 4.45236L12.6041 3.79918C13.3467 3.05667 14.354 2.63954 15.4043 2.63954C16.4545 2.63954 17.4618 3.05667 18.2045 3.79918C18.9471 4.54169 19.3643 5.54875 19.3643 6.59881C19.3643 7.64888 18.9471 8.65594 18.2045 9.39845L15.5527 12.0507C14.8383 12.7646 13.8781 13.1784 12.8685 13.2077C11.8589 13.2369 10.8763 12.8793 10.1217 12.208C9.99175 12.0925 9.84027 12.0037 9.67596 11.9467C9.51165 11.8897 9.33772 11.8656 9.1641 11.8758C8.99048 11.886 8.82057 11.9303 8.66407 12.0062C8.50758 12.082 8.36756 12.188 8.25201 12.3179C8.13647 12.4479 8.04765 12.5993 7.99065 12.7636C7.93364 12.9279 7.90956 13.1018 7.91977 13.2754C7.92998 13.449 7.97429 13.6188 8.05017 13.7753C8.12605 13.9318 8.23201 14.0718 8.36199 14.1873C9.62019 15.3055 11.2582 15.9006 12.9409 15.8509C14.6236 15.8013 16.2237 15.1105 17.4137 13.9201L20.0665 11.2689C21.304 10.0305 21.9994 8.35171 22 6.60115C22.0006 4.85058 21.3064 3.17132 20.0698 1.93203V1.92983Z" fill="white"/>
</svg>
